<?xml version="1.0" encoding="UTF-8"?>
<svg id="_图层_1" xmlns="http://www.w3.org/2000/svg" version="1.1" viewBox="0 0 486.4 148.4">
  <!-- Generator: Adobe Illustrator 29.0.1, SVG Export Plug-In . SVG Version: 2.1.0 Build 192)  -->
  <defs>
    <style>
      .st0 {
        fill: #231815;
      }
    </style>
  </defs>
  <path class="st0" d="M56,67.5v30h-8.9v-30h-3.2v-8.3h3.2v-14.8c0-4.8.8-8.2,2.5-10.2,2.3-2.8,5.7-4.2,10.1-4.2s3.5.5,5.9,1.4v9.1l-.9-.5c-1.9-1-3.5-1.5-4.7-1.5s-2.6.6-3.2,1.7c-.6,1.1-.8,3.2-.8,6.4v12.6h9.6v8.3h-9.6,0Z"/>
  <path class="st0" d="M80.9,47.2v50.3h-8.9v-50.3h8.9Z"/>
  <path class="st0" d="M90.3,78.1c0-5.5,2-10.2,5.9-14.1s8.8-5.8,14.5-5.8,10.6,2,14.6,5.9c3.9,3.9,5.9,8.7,5.9,14.4s-2,10.6-5.9,14.4c-4,3.9-8.9,5.8-14.7,5.8s-10.6-2-14.4-5.9c-3.9-3.9-5.8-8.8-5.8-14.6h0ZM99.4,78.2c0,3.8,1,6.9,3.1,9.1,2.1,2.3,4.9,3.4,8.3,3.4s6.2-1.1,8.3-3.3,3.1-5.2,3.1-8.9-1-6.7-3.1-8.9c-2.1-2.3-4.9-3.4-8.3-3.4s-6.1,1.1-8.2,3.4c-2.1,2.3-3.2,5.2-3.2,8.7Z"/>
  <path class="st0" d="M143.8,59.2l10,21.9,10.8-25.4,10.9,25.4,9.9-21.9h9.9l-20.1,41.2-10.7-24.7-10.8,24.7-20-41.2s9.9,0,9.9,0Z"/>
  <path class="st0" d="M210.9,50v47.5h-8.9v-47.5h8.9Z"/>
  <path class="st0" d="M257.1,80.4h-27.5c.2,3.2,1.3,5.7,3.1,7.5,1.8,1.8,4.1,2.8,7,2.8s4-.5,5.5-1.6c1.4-1,3-3,4.8-5.8l7.5,4.2c-1.1,2-2.4,3.7-3.7,5-1.3,1.4-2.7,2.6-4.1,3.5s-3.1,1.6-4.8,2c-1.7.4-3.6.6-5.6.6-5.7,0-10.3-1.8-13.8-5.5-3.5-3.7-5.2-8.6-5.2-14.7s1.7-11,5-14.7c3.4-3.7,7.9-5.5,13.4-5.5s10.1,1.8,13.4,5.4c3.2,3.6,4.9,8.5,4.9,14.8v2.1s0,0,0,0ZM248,73.2c-1.2-4.7-4.2-7.1-8.9-7.1s-2.1.2-3,.5c-.9.3-1.8.8-2.6,1.4-.8.6-1.4,1.4-2,2.2s-1,1.8-1.3,3h17.8Z"/>
  <path class="st0" d="M295,59.2h8.9v38.3h-8.9v-4c-3.6,3.4-7.6,5.1-11.8,5.1s-9.7-1.9-13.1-5.7c-3.4-3.9-5.1-8.8-5.1-14.6s1.7-10.5,5.1-14.4c3.4-3.8,7.7-5.7,12.9-5.7s8.5,1.8,12,5.5v-4.5h0ZM274,78.2c0,3.7,1,6.7,2.9,9,2,2.3,4.6,3.5,7.6,3.5s5.9-1.1,7.9-3.4c2-2.3,3-5.3,3-8.9s-1-6.6-3-8.9c-2-2.3-4.6-3.4-7.9-3.4s-5.6,1.2-7.6,3.5c-2,2.3-3,5.2-3,8.6Z"/>
  <path class="st0" d="M352.1,96.6c0,1.8,0,3.4-.2,4.8s-.3,2.6-.5,3.6c-.6,2.9-1.9,5.4-3.7,7.4-3.5,4-8.2,6-14.3,6s-9.3-1.4-12.6-4.1c-3.4-2.8-5.4-6.8-5.9-11.8h8.9c.3,1.9.9,3.3,1.7,4.4,1.8,2.4,4.5,3.6,8,3.6,6.5,0,9.7-4,9.7-11.9v-5.3c-3.5,3.6-7.6,5.4-12.1,5.4s-9.5-1.9-12.8-5.7c-3.4-3.8-5-8.6-5-14.4s1.6-10.3,4.7-14.2c3.4-4.1,7.8-6.2,13.3-6.2s8.8,1.8,12,5.4v-4.3h8.9s0,37.4,0,37.4ZM343.6,78.4c0-3.7-1-6.7-3-8.9-2-2.3-4.6-3.4-7.8-3.4s-6,1.2-8,3.7c-1.8,2.2-2.6,5.1-2.6,8.6s.9,6.3,2.6,8.6c1.9,2.4,4.6,3.7,8,3.7s6.1-1.2,8-3.7c1.8-2.2,2.7-5.1,2.7-8.6h0Z"/>
  <path class="st0" d="M372.1,59.2v22c0,6.3,2.5,9.5,7.5,9.5s7.5-3.2,7.5-9.5v-22h8.9v22.2c0,3.1-.4,5.7-1.1,8-.7,2-2,3.8-3.8,5.4-3,2.6-6.8,3.9-11.4,3.9s-8.4-1.3-11.4-3.9c-1.8-1.6-3.1-3.4-3.9-5.4-.7-1.8-1.1-4.4-1.1-8v-22.2h8.9Z"/>
  <path class="st0" d="M442,80.4h-27.5c.2,3.2,1.3,5.7,3.1,7.5,1.8,1.8,4.1,2.8,7,2.8s4-.5,5.5-1.6c1.4-1,3-3,4.8-5.8l7.5,4.2c-1.1,2-2.4,3.7-3.7,5-1.3,1.4-2.7,2.6-4.1,3.5s-3.1,1.6-4.8,2-3.5.6-5.5.6c-5.7,0-10.3-1.8-13.8-5.5-3.5-3.7-5.2-8.6-5.2-14.7s1.7-11,5-14.7c3.4-3.7,7.9-5.5,13.5-5.5s10.1,1.8,13.4,5.4c3.2,3.6,4.9,8.5,4.9,14.8v2.1s0,0,0,0ZM433,73.2c-1.2-4.7-4.2-7.1-8.9-7.1s-2.1.2-3,.5c-.9.3-1.8.8-2.6,1.4-.8.6-1.4,1.4-2,2.2s-1,1.8-1.3,3h17.8Z"/>
</svg>