<?xml version="1.0" encoding="UTF-8"?>
<svg id="_图层_1" data-name="图层 1" xmlns="http://www.w3.org/2000/svg" viewBox="0 0 398.4 88.43">
  <defs>
    <style>
      .cls-1 {
        fill: #231815;
      }
    </style>
  </defs>
  <path class="cls-1" d="M12.04,37.45v30.05H3.15v-30.05H0v-8.26h3.15v-14.79c0-4.82.84-8.23,2.52-10.23C7.97,1.39,11.33,0,15.73,0c1.57,0,3.55.46,5.94,1.38v9.05l-.9-.47c-1.91-.97-3.49-1.46-4.72-1.46-1.57,0-2.64.56-3.19,1.69-.55,1.1-.83,3.23-.83,6.37v12.63h9.64v8.26h-9.64Z"/>
  <path class="cls-1" d="M36.94,17.23v50.27h-8.85V17.23h8.85Z"/>
  <path class="cls-1" d="M46.34,48.07c0-5.53,1.98-10.24,5.94-14.12,3.96-3.88,8.79-5.82,14.48-5.82s10.57,1.95,14.55,5.86c3.93,3.91,5.9,8.71,5.9,14.4s-1.98,10.56-5.94,14.44c-3.99,3.85-8.88,5.78-14.67,5.78s-10.56-1.97-14.44-5.9c-3.88-3.88-5.82-8.76-5.82-14.63ZM55.39,48.23c0,3.83,1.02,6.86,3.07,9.09,2.1,2.26,4.86,3.38,8.3,3.38s6.23-1.11,8.3-3.34c2.07-2.23,3.11-5.21,3.11-8.93s-1.04-6.7-3.11-8.93c-2.1-2.26-4.86-3.38-8.3-3.38s-6.12,1.13-8.22,3.38c-2.1,2.26-3.15,5.17-3.15,8.73Z"/>
  <path class="cls-1" d="M99.84,29.19l10.03,21.87,10.82-25.37,10.9,25.37,9.91-21.87h9.91l-20.06,41.19-10.66-24.66-10.78,24.66-20.02-41.19h9.95Z"/>
  <path class="cls-1" d="M166.94,19.95v47.55h-8.85V19.95h8.85Z"/>
  <path class="cls-1" d="M213.05,50.43h-27.46c.24,3.15,1.26,5.65,3.07,7.51,1.81,1.84,4.13,2.75,6.96,2.75,2.2,0,4.03-.52,5.47-1.57,1.42-1.05,3.03-2.99,4.84-5.82l7.47,4.17c-1.15,1.97-2.37,3.65-3.66,5.05-1.28,1.4-2.66,2.56-4.13,3.46-1.47.9-3.06,1.57-4.76,1.99-1.71.42-3.55.63-5.55.63-5.72,0-10.31-1.84-13.77-5.51-3.46-3.7-5.19-8.6-5.19-14.71s1.68-10.96,5.04-14.71c3.38-3.7,7.87-5.55,13.45-5.55s10.1,1.8,13.37,5.39c3.25,3.57,4.88,8.51,4.88,14.83l-.04,2.08ZM203.96,43.19c-1.23-4.72-4.21-7.08-8.93-7.08-1.08,0-2.08.16-3.03.49-.94.33-1.8.8-2.58,1.42-.77.62-1.44,1.36-1.99,2.22s-.97,1.85-1.26,2.95h17.78Z"/>
  <path class="cls-1" d="M250.97,29.19h8.89v38.31h-8.89v-4.01c-3.65,3.41-7.57,5.11-11.76,5.11-5.3,0-9.68-1.91-13.14-5.74-3.44-3.91-5.15-8.79-5.15-14.63s1.72-10.53,5.15-14.36c3.44-3.83,7.74-5.74,12.9-5.74,4.46,0,8.46,1.84,12,5.51v-4.45ZM229.96,48.23c0,3.67.98,6.66,2.95,8.97,2.02,2.33,4.56,3.5,7.63,3.5,3.28,0,5.93-1.13,7.95-3.38,2.02-2.33,3.03-5.3,3.03-8.89s-1.01-6.56-3.03-8.89c-2.02-2.28-4.64-3.42-7.87-3.42-3.04,0-5.59,1.15-7.63,3.46-2.02,2.33-3.03,5.22-3.03,8.65Z"/>
  <path class="cls-1" d="M308.08,66.6c0,1.81-.06,3.4-.18,4.78s-.28,2.59-.49,3.64c-.63,2.88-1.86,5.36-3.7,7.43-3.46,3.99-8.22,5.98-14.28,5.98-5.11,0-9.32-1.38-12.63-4.13-3.41-2.83-5.38-6.75-5.9-11.76h8.89c.34,1.89.9,3.34,1.69,4.37,1.84,2.39,4.51,3.58,8.02,3.58,6.48,0,9.72-3.97,9.72-11.92v-5.35c-3.51,3.59-7.57,5.39-12.15,5.39-5.22,0-9.49-1.89-12.82-5.66-3.36-3.83-5.04-8.61-5.04-14.36s1.56-10.33,4.68-14.24c3.36-4.14,7.79-6.22,13.3-6.22,4.83,0,8.84,1.8,12.04,5.39v-4.33h8.85v37.41ZM299.59,48.42c0-3.72-1-6.7-2.99-8.93-2.02-2.28-4.6-3.42-7.75-3.42-3.36,0-6.01,1.25-7.95,3.74-1.76,2.23-2.64,5.11-2.64,8.65s.88,6.35,2.64,8.58c1.91,2.44,4.56,3.66,7.95,3.66s6.06-1.23,8.02-3.7c1.81-2.23,2.71-5.09,2.71-8.58Z"/>
  <path class="cls-1" d="M328.11,29.19v21.99c0,6.35,2.5,9.52,7.51,9.52s7.51-3.17,7.51-9.52v-21.99h8.85v22.19c0,3.07-.38,5.72-1.14,7.95-.73,1.99-2.01,3.79-3.82,5.39-2.99,2.6-6.79,3.89-11.41,3.89s-8.38-1.3-11.37-3.89c-1.84-1.6-3.13-3.4-3.89-5.39-.73-1.78-1.1-4.43-1.1-7.95v-22.19h8.85Z"/>
  <path class="cls-1" d="M398.05,50.43h-27.46c.24,3.15,1.26,5.65,3.07,7.51,1.81,1.84,4.13,2.75,6.96,2.75,2.2,0,4.03-.52,5.47-1.57,1.42-1.05,3.03-2.99,4.84-5.82l7.47,4.17c-1.15,1.97-2.37,3.65-3.66,5.05-1.28,1.4-2.66,2.56-4.13,3.46s-3.06,1.57-4.76,1.99c-1.7.42-3.55.63-5.55.63-5.72,0-10.31-1.84-13.77-5.51-3.46-3.7-5.19-8.6-5.19-14.71s1.68-10.96,5.04-14.71c3.38-3.7,7.87-5.55,13.45-5.55s10.1,1.8,13.37,5.39c3.25,3.57,4.88,8.51,4.88,14.83l-.04,2.08ZM388.96,43.19c-1.23-4.72-4.21-7.08-8.93-7.08-1.08,0-2.08.16-3.03.49-.94.33-1.8.8-2.58,1.42-.77.62-1.44,1.36-1.99,2.22s-.97,1.85-1.26,2.95h17.78Z"/>
</svg>